<?xml version="1.0" standalone="no"?>
<!DOCTYPE svg PUBLIC "-//W3C//DTD SVG 20010904//EN"
 "http://www.w3.org/TR/2001/REC-SVG-20010904/DTD/svg10.dtd">
<svg version="1.0" xmlns="http://www.w3.org/2000/svg"
 width="100.000000pt" height="100.000000pt" viewBox="0 0 100.000000 100.000000"
 preserveAspectRatio="xMidYMid meet">

<g transform="translate(0.000000,100.000000) scale(0.100000,-0.100000)"
fill="#000000" stroke="none">
<path d="M283 976 c-124 -31 -225 -141 -252 -276 -14 -70 -2 -138 39 -220 34
-68 138 -183 199 -220 22 -14 41 -31 41 -38 0 -32 34 -81 65 -96 61 -29 135
10 148 79 l6 30 -12 -27 c-31 -66 -83 -91 -136 -64 -88 46 -58 176 41 176 37
0 78 -26 89 -57 3 -8 17 -9 50 -1 26 6 57 8 70 5 13 -4 74 -61 134 -127 74
-81 117 -120 131 -120 27 0 70 34 89 69 14 27 13 28 -111 152 l-125 124 5 43
c3 23 15 65 27 93 44 102 5 215 -116 336 -121 121 -257 171 -382 139z m461
-545 c-7 -29 -11 -58 -8 -62 3 -5 -2 -9 -12 -9 -9 0 -31 -15 -48 -33 -22 -24
-44 -36 -71 -39 -22 -3 -49 -9 -60 -13 -11 -3 31 43 94 104 63 61 116 110 117
108 1 -1 -4 -26 -12 -56z"/>
<path d="M425 280 c-10 -11 -13 -20 -8 -20 13 0 38 29 31 35 -3 3 -13 -4 -23
-15z"/>
</g>
</svg>
